<?xml version="1.0" encoding="iso-8859-1"?>
<!-- Generator: Adobe Illustrator 19.0.0, SVG Export Plug-In . SVG Version: 6.00 Build 0)  -->
<svg version="1.1" id="Capa_1" xmlns="http://www.w3.org/2000/svg" xmlns:xlink="http://www.w3.org/1999/xlink" x="0px" y="0px"
	 viewBox="0 0 473.68 473.68" style="enable-background:new 0 0 473.68 473.68;" xml:space="preserve">
<path style="fill:#F0C816;" d="M236.838,473.679c-0.052,0-0.101-0.007-0.153-0.007c60.667,0.045,121.338-23.073,167.623-69.358
	l-76.179-76.179C315.448,409.355,285.034,473.679,236.838,473.679z"/>
<path style="fill:#077D48;" d="M404.308,69.368C358.049,23.113,297.416-0.012,236.786,0.003h0.052
	c82.615,0,91.29,328.133,91.29,328.133l76.179,76.179C496.806,311.816,496.802,161.863,404.308,69.368z"/>
<path style="fill:#FFD72E;" d="M328.129,328.135L69.365,69.375c-92.487,92.487-92.487,242.448,0,334.931
	c46.206,46.202,106.757,69.328,167.316,69.365c0.052,0,0.101,0.007,0.153,0.007C285.034,473.679,315.448,409.355,328.129,328.135z"
	/>
<path style="fill:#008E56;" d="M328.129,328.135c21.738-139.221-8.676-328.133-91.29-328.133h-0.052
	C176.194,0.018,115.601,23.139,69.365,69.375L328.129,328.135z"/>
<polygon style="fill:#D32027;" points="236.435,164.346 251.748,211.476 301.305,211.476 261.213,240.599 276.527,287.729 
	236.435,258.602 196.343,287.729 211.656,240.599 171.564,211.476 221.121,211.476 "/>
<g>
</g>
<g>
</g>
<g>
</g>
<g>
</g>
<g>
</g>
<g>
</g>
<g>
</g>
<g>
</g>
<g>
</g>
<g>
</g>
<g>
</g>
<g>
</g>
<g>
</g>
<g>
</g>
<g>
</g>
</svg>
